Coordinates
version=1
nRows=10
nColumns=40
inDegrees=yes

Units are S.I. units (second, meters, Newtons, ...)
If the header above contains a line with 'inDegrees', this indicates whether rotational values are in degrees (yes) or radians (no).

endheader
time	pelvis_tilt	pelvis_list	pelvis_rotation	pelvis_tx	pelvis_ty	pelvis_tz	hip_flexion_r	hip_adduction_r	hip_rotation_r	knee_angle_r	knee_angle_r_beta	ankle_angle_r	subtalar_angle_r	mtp_angle_r	hip_flexion_l	hip_adduction_l	hip_rotation_l	knee_angle_l	knee_angle_l_beta	ankle_angle_l	subtalar_angle_l	mtp_angle_l	lumbar_extension	lumbar_bending	lumbar_rotation	arm_flex_r	arm_add_r	arm_rot_r	elbow_flex_r	pro_sup_r	wrist_flex_r	wrist_dev_r	arm_flex_l	arm_add_l	arm_rot_l	elbow_flex_l	pro_sup_l	wrist_flex_l	wrist_dev_l
      4.27500000	     15.59533172	     -6.89337407	     -3.40092514	     -0.32169488	      0.89970001	     -1.03415230	     35.96423331	      6.89620244	    -14.98414245	      6.11970618	      0.10680902	     -1.89064454	      0.00000000	      0.00000000	     20.66202272	    -10.21596992	    -11.47789177	     72.61811582	      1.26742522	     23.76385952	      0.00000000	      0.00000000	    -26.53169795	     -2.02312518	     11.42979658	     89.88954729	    -21.65385315	     35.38152804	     29.92997974	     84.40321721	      0.00000000	      0.00000000	     89.94017470	    -18.74199536	     40.97636193	     50.11496095	     82.04216294	      0.00000000	      0.00000000
      4.28000000	     15.52991487	     -6.97983003	     -3.29095204	     -0.32147388	      0.90099391	     -1.03429980	     35.95992677	      6.90722268	    -14.97747297	      6.14154007	      0.10719010	     -1.87925814	      0.00000000	      0.00000000	     20.61722898	    -10.28109857	    -11.41926067	     72.37472619	      1.26317727	     23.69217466	      0.00000000	      0.00000000	    -26.44326643	     -1.89169593	     11.35543033	     89.88842388	    -21.67221999	     35.41106155	     29.94122843	     84.39383608	      0.00000000	      0.00000000	     89.93980588	    -18.74441919	     40.97556455	     50.12851206	     82.05187196	      0.00000000	      0.00000000
      4.28500000	     15.43587156	     -7.03211390	     -3.24544565	     -0.32117300	      0.90242309	     -1.03425821	     35.97275165	      6.94272875	    -15.03515962	      6.14295339	      0.10721476	     -1.85937910	      0.00000000	      0.00000000	     20.55582495	    -10.32851630	    -11.40238794	     72.07460372	      1.25793914	     23.57907319	      0.00000000	      0.00000000	    -26.31305517	     -1.81289586	     11.32817358	     89.88588170	    -21.66846298	     35.48643532	     29.89393659	     84.39503109	      0.00000000	      0.00000000	     89.93915311	    -18.77847657	     41.02445128	     50.11252277	     82.06283642	      0.00000000	      0.00000000
      4.29000000	     15.53339388	     -7.02447533	     -3.18581007	     -0.32080317	      0.90411419	     -1.03433800	     35.78073086	      6.88523580	    -15.02568819	      6.20007610	      0.10821174	     -1.80786626	      0.00000000	      0.00000000	     20.25715572	    -10.28648756	    -11.41955330	     71.73260135	      1.25197007	     23.31195659	      0.00000000	      0.00000000	    -26.34871105	     -1.79668512	     11.19153090	     89.88750339	    -21.58179921	     35.84753820	     29.73101722	     84.40937015	      0.00000000	      0.00000000	     89.93922165	    -18.91696325	     41.27122520	     50.06712664	     82.10644061	      0.00000000	      0.00000000
      4.29500000	     15.42262751	     -7.08474745	     -3.13239427	     -0.32057181	      0.90547984	     -1.03430470	     35.81302182	      6.91057621	    -14.98374106	      6.21270082	      0.10843208	     -1.78437090	      0.00000000	      0.00000000	     20.23568208	    -10.36597290	    -11.42859938	     71.46994009	      1.24738577	     23.23087947	      0.00000000	      0.00000000	    -26.21896268	     -1.72052772	     11.15329634	     89.88583082	    -21.60962706	     35.86069104	     29.74476310	     84.40453332	      0.00000000	      0.00000000	     89.93864548	    -18.92601058	     41.26998952	     50.07792085	     82.11302157	      0.00000000	      0.00000000
      4.30000000	     15.36697956	     -7.11793205	     -3.06956004	     -0.32027668	      0.90693926	     -1.03443033	     35.79815190	      6.89309084	    -14.99026856	      6.24181877	      0.10894029	     -1.82161484	      0.00000000	      0.00000000	     20.12482770	    -10.36950504	    -11.40614578	     71.14309754	      1.24168129	     23.09647139	      0.00000000	      0.00000000	    -26.12820006	     -1.64586307	     11.10492307	     89.88392674	    -21.61574669	     35.91939623	     29.73396981	     84.40580044	      0.00000000	      0.00000000	     89.93816948	    -18.95084136	     41.32492047	     50.05290693	     82.12224632	      0.00000000	      0.00000000
      4.30500000	     15.30925671	     -7.13098387	     -3.03466813	     -0.31999498	      0.90830767	     -1.03438541	     35.78558435	      6.89231230	    -14.99478521	      6.24941651	      0.10907289	     -1.76184589	      0.00000000	      0.00000000	     20.02356074	    -10.37987606	    -11.42796572	     70.83877480	      1.23636986	     22.95431271	      0.00000000	      0.00000000	    -26.02538093	     -1.62084254	     11.05439699	     89.88275452	    -21.61661236	     36.02167743	     29.66216993	     84.41235724	      0.00000000	      0.00000000	     89.93784855	    -18.99079155	     41.40858884	     50.02112091	     82.13366481	      0.00000000	      0.00000000
      4.31000000	     15.38802425	     -7.06805454	     -2.94350338	     -0.31968156	      0.91008058	     -1.03459834	     35.61219633	      6.78070163	    -15.01843637	      6.28325482	      0.10966348	     -1.59416197	      0.00000000	      0.00000000	     19.74794153	    -10.25660411	    -11.43007984	     70.45851302	      1.22973304	     22.62013296	      0.00000000	      0.00000000	    -26.06124109	     -1.64714593	     10.88212273	     89.88433429	    -21.55893496	     36.36971563	     29.57768391	     84.43140249	      0.00000000	      0.00000000	     89.93790344	    -19.10920622	     41.63939310	     49.99472574	     82.17977468	      0.00000000	      0.00000000
      4.31500000	     15.32073339	     -7.11191544	     -2.88137980	     -0.31938505	      0.91140649	     -1.03459131	     35.61158714	      6.78677366	    -14.99433414	      6.30143853	      0.10998085	     -1.58184051	      0.00000000	      0.00000000	     19.67762830	    -10.31285105	    -11.44500631	     70.20420904	      1.22529460	     22.54974919	      0.00000000	      0.00000000	    -25.96439972	     -1.57944469	     10.82767592	     89.88199848	    -21.57828654	     36.38811890	     29.57527325	     84.42722110	      0.00000000	      0.00000000	     89.93741664	    -19.13061850	     41.64347766	     50.00227598	     82.18495561	      0.00000000	      0.00000000
      4.32000000	     15.27711221	     -7.16760852	     -2.81115547	     -0.31918876	      0.91298248	     -1.03461500	     35.57626536	      6.79616601	    -15.01039709	      6.31871639	      0.11028241	     -1.56784560	      0.00000000	      0.00000000	     19.55261565	    -10.34592247	    -11.40333827	     69.85153367	      1.21913925	     22.40329827	      0.00000000	      0.00000000	    -25.89538252	     -1.50055830	     10.77162425	     89.88133408	    -21.56946844	     36.44068941	     29.57571272	     84.42803964	      0.00000000	      0.00000000	     89.93682977	    -19.15711767	     41.70949468	     49.97421150	     82.19495688	      0.00000000	      0.00000000
